<svg height="512pt" viewBox="0 -45 512.00078 512" width="512pt" xmlns="http://www.w3.org/2000/svg" xmlns:xlink="http://www.w3.org/1999/xlink"><radialGradient id="a" cx="207.105467912" cy="15.169165881" gradientUnits="userSpaceOnUse" r="457.9871081638"><stop offset="0" stop-color="#ff4b3e"/><stop offset=".4462" stop-color="#fd4a3d"/><stop offset=".6069" stop-color="#f64939"/><stop offset=".7215" stop-color="#eb4533"/><stop offset=".8141" stop-color="#da412a"/><stop offset=".8935" stop-color="#c43a1f"/><stop offset=".9625" stop-color="#a93311"/><stop offset="1" stop-color="#972e07"/></radialGradient><linearGradient id="b"><stop offset="0" stop-color="#acc130"/><stop offset="1" stop-color="#97a03b"/></linearGradient><linearGradient id="c" gradientUnits="userSpaceOnUse" x1="244.4405353584" x2="283.7562291146" xlink:href="#b" y1="38.9703119606" y2="39.5089161136"/><linearGradient id="d"><stop offset="0" stop-color="#972e07" stop-opacity="0"/><stop offset="1" stop-color="#582707"/></linearGradient><linearGradient id="e" gradientUnits="userSpaceOnUse" x1="232.2724873534" x2="109.1660501424" xlink:href="#d" y1="137.273186975" y2="14.1668501562"/><linearGradient id="f" gradientUnits="userSpaceOnUse" x1="149.9740739516" x2="-129.5840697004" y1="222.2750619306" y2="33.8435205718"><stop offset=".0013" stop-color="#e7eeed" stop-opacity="0"/><stop offset=".7731" stop-color="#f9fbfa" stop-opacity=".772549"/><stop offset="1" stop-color="#fff"/></linearGradient><linearGradient id="g" gradientUnits="userSpaceOnUse" x1="341.2233231878" x2="225.9513928726" xlink:href="#d" y1="248.5917728464" y2="-54.9229614916"/><linearGradient id="h" gradientTransform="matrix(.99579 .127498 -.127498 .99579 -583.882718 67.163342)" gradientUnits="userSpaceOnUse" x1="820.4786" x2="871.3978" xlink:href="#b" y1="-40.6569" y2="-53.5401"/><linearGradient id="i" gradientTransform="matrix(.807555 .596329 -.596329 .807555 -457.870784 -336.85646)" gradientUnits="userSpaceOnUse" x1="743.4021" x2="786.5479" xlink:href="#b" y1="-54.4365" y2="-24.8736"/><linearGradient id="j" gradientTransform="matrix(-.807555 .596329 .596329 .807555 855.078022 -336.85646)" gradientUnits="userSpaceOnUse" x1="651.4133" x2="694.5591" xlink:href="#b" y1="13.4915" y2="43.0544"/><linearGradient id="k" gradientTransform="matrix(.99579 .127498 -.127498 .99579 -583.882718 67.163342)" gradientUnits="userSpaceOnUse" x1="754.2405" x2="799.5179" xlink:href="#b" y1="-64.5105" y2="-33.4871"/><linearGradient id="l" gradientTransform="matrix(-.999404 .094971 .094971 .999404 126.850082 88.854574)" gradientUnits="userSpaceOnUse" x1="-208.8514" x2="-163.5742" xlink:href="#b" y1="32.8181" y2="63.8414"/><path d="m347.019531 92.191406c-24.25 0-47.273437 5.238282-68.007812 14.636719-14.613281 6.621094-31.410157 6.621094-46.023438 0-20.734375-9.398437-43.761719-14.636719-68.011719-14.636719-91.265624 0-165.707031 75.066406-164.97265575 166.335938.73046875 90.488281 74.31249975 163.621094 164.97265575 163.621094 8.414063 0 16.675782-.632813 24.75-1.847657 43.894532-6.605469 88.652344-6.605469 132.546876 0 8.074218 1.214844 16.335937 1.847657 24.75 1.847657 90.660156 0 164.242187-73.132813 164.972656-163.621094.734375-91.269532-73.703125-166.335938-164.976563-166.335938zm0 0" fill="url(#a)"/><path d="m283.871094 77.878906h-55.742188v-50.007812c0-15.390625 12.476563-27.871094 27.871094-27.871094s27.871094 12.480469 27.871094 27.871094zm0 0" fill="url(#c)"/><path d="m257.746094 73.664062c-21.992188-12.023437-89.058594-40.472656-148.71875 19.332032-3.371094 3.375-2.734375 8.9375 1.140625 11.429687l106.34375 106.339844c.691406 1.066406 1.671875 1.972656 2.9375 2.582031 25.070312 12.011719 98.335937 39.496094 148.753906-19.917968 2.914063-3.433594 2.195313-8.585938-1.503906-10.992188zm0 0" fill="url(#e)"/><path d="m324.367188 236.511719c0-75.449219-68.621094-136.609375-153.273438-136.609375s-153.273438 61.160156-153.273438 136.609375c0 75.445312 68.621094 136.605469 153.273438 136.605469s153.273438-61.160157 153.273438-136.605469zm0 0" fill="url(#f)"/><path d="m403.710938 102.5.09375-.160156c-17.71875-6.550782-36.847657-10.148438-56.78125-10.148438-24.25 0-47.273438 5.238282-68.011719 14.636719-14.613281 6.621094-31.410157 6.621094-46.023438 0-17.648437-8-36.957031-12.972656-57.265625-14.277344-18.867187 13.929688-35.847656 35.335938-45.128906 68.175781-1.199219 4.234376 1.308594 8.429688 5.214844 9.585938l247.765625 247.765625c73.097656-16.535156 127.792969-81.601563 128.421875-159.550781.160156-20.273438-3.402344-39.738282-10.023438-57.765625zm0 0" fill="url(#g)"/><path d="m255.140625 72.789062c19.128906 18.058594 55.832031 31.421876 15.457031 110.34375-2.429687 4.753907-8.8125 5.765626-12.492187 1.898438-20.109375-21.132812-57.863281-41-14.886719-110.570312 2.59375-4.195313 8.335938-5.058594 11.921875-1.671876zm0 0" fill="url(#h)"/><path d="m257.746094 73.664062c-21.992188-12.027343-89.058594-40.472656-148.71875 19.332032-3.59375 3.601562-2.632813 9.683594 1.953125 11.882812 25.070312 12.011719 98.335937 39.492188 148.753906-19.917968 3.042969-3.582032 2.136719-9.039063-1.988281-11.296876zm0 0" fill="url(#i)"/><path d="m254.253906 73.664062c21.992188-12.027343 89.058594-40.472656 148.71875 19.332032 3.59375 3.601562 2.632813 9.683594-1.953125 11.882812-25.070312 12.011719-98.335937 39.492188-148.753906-19.917968-3.039063-3.582032-2.132813-9.039063 1.988281-11.296876zm0 0" fill="url(#j)"/><path d="m257.023438 66.996094c-26.304688.21875-102.3125 8.425781-126.429688 93.730468-1.453125 5.132813 2.535156 10.21875 7.863281 9.890626 29.117188-1.800782 110.316407-14.058594 126.160157-94.285157.960937-4.835937-2.660157-9.375-7.59375-9.335937zm0 0" fill="url(#k)"/><path d="m258.167969 67.082031c26.285156 1.074219 101.984375 11.757813 123.304687 97.804688 1.285156 5.179687-2.867187 10.132812-8.179687 9.628906-29.042969-2.75-109.800781-17.652344-123.023438-98.347656-.796875-4.871094 2.972657-9.289063 7.898438-9.085938zm0 0" fill="url(#l)"/></svg>